<svg xmlns="http://www.w3.org/2000/svg" viewBox="0 0 829.53 269.19"><defs><style>.cls-1{fill:#243893;}.cls-2{fill:#009245;}.cls-3{fill:#fff;}</style></defs><g id="Layer_2" data-name="Layer 2"><g id="Layer_1-2" data-name="Layer 1"><path class="cls-1" d="M128.93,180.47h-25l24.61,43.7h25.21Zm-45.37,0H57.21l-18.6,31.14-7.67,12.56H93.73v-18H69.14Z"/><path class="cls-1" d="M129.07,163H43.28V145.23h78.54V129.69H59.46q-16.18-.85-16.18-10.88V87.88q0-9.37,16.16-10.13h83.45V96H64V111.7H129q13,0,13.94,8.94v31.93Q141.95,163,129.07,163Z"/><path class="cls-2" d="M151.4,269.19H32.14A32.18,32.18,0,0,1,0,237.05V32.14A32.18,32.18,0,0,1,32.14,0H151.4a32.18,32.18,0,0,1,32.14,32.14V237.05A32.18,32.18,0,0,1,151.4,269.19ZM32.14,11A21.16,21.16,0,0,0,11,32.14V237.05a21.15,21.15,0,0,0,21.13,21.12H151.4a21.14,21.14,0,0,0,21.12-21.12V32.14A21.15,21.15,0,0,0,151.4,11Z"/><circle class="cls-1" cx="61.18" cy="55.06" r="10.4"/><circle class="cls-1" cx="91.77" cy="51.39" r="14.07"/><circle class="cls-1" cx="122.36" cy="55.06" r="10.4"/><path class="cls-2" d="M410.46,87H371V78.81h36.08V71.68H378.47q-7.44-.41-7.43-5V52.47q0-4.32,7.42-4.66h38.35v8.36H380.57v7.24H410.4c4,0,6.11,1.37,6.41,4.11V82.19C416.51,85.38,414.4,87,410.46,87Z"/><path class="cls-2" d="M434.22,71.58V87H424.05V47.81h41.62c2.57,0,3.95,1.77,4.15,5.29V67.41q0,3.87-4.21,4.17Zm0-9.34h24.45c1,0,1.47-.77,1.47-2.32V58.3c0-1.55-.49-2.32-1.47-2.32H434.22Z"/><path class="cls-2" d="M522.12,81.45q0,5.14-7.09,5.53-6.25,0-33,0-5.3,0-5.68-5.68.1-7.14,0-28.84,0-4.3,7.44-4.65h31.33q6.57,0,7,4.46Zm-9.68-2.73V56.17h-26.6V78.72Z"/><path class="cls-2" d="M550.33,71.58H540.06V87H529.89V47.81h41.62c2.57,0,4,1.77,4.15,5.29V67.41q0,3.87-4.23,4.17H564.2L579.85,87H566Zm-10.27-9.34h24.45c1,0,1.47-.77,1.47-2.32V58.3c0-1.55-.49-2.32-1.47-2.32H540.06Z"/><path class="cls-2" d="M584.81,55.83v-8h47.73v8H614.1V87H602.71V55.83Z"/><path class="cls-2" d="M678.47,87H639.05V78.81h36.09V71.68H646.48q-7.43-.41-7.43-5V52.47q0-4.32,7.43-4.66h38.34v8.36H648.59v7.24h29.83c4,0,6.11,1.37,6.4,4.11V82.19Q684.39,87,678.47,87Z"/><rect class="cls-1" x="233.81" y="114.35" width="595.72" height="104.85"/><path class="cls-3" d="M319.14,190.43h-5.69v-6.84q-7.14,8.17-17.51,7.84a21.64,21.64,0,0,1-15.45-7,23.1,23.1,0,0,1,.46-32.35,21,21,0,0,1,16.37-6.53A21.93,21.93,0,0,1,313,152.62a20.87,20.87,0,0,1,6.15,15.83v22ZM280,168.07a17,17,0,0,0,4.53,12.14A16.09,16.09,0,0,0,296,185.66a15.32,15.32,0,0,0,12.3-5,17.27,17.27,0,0,0,5-12.68,17,17,0,0,0-4.92-11.83,15.22,15.22,0,0,0-11.45-4.92A16.12,16.12,0,0,0,285,156.16,16.51,16.51,0,0,0,280,168.07Z"/><path class="cls-3" d="M360.66,190.43h-6.08l-18-43.8h6.15l14.91,36.11,14.83-36.11h6.45Z"/><path class="cls-3" d="M439.84,190.43h-5.68v-6.84q-7.16,8.17-17.52,7.84a21.66,21.66,0,0,1-15.45-7,23.1,23.1,0,0,1,.46-32.35A21,21,0,0,1,418,145.55a22,22,0,0,1,15.68,7.07,20.9,20.9,0,0,1,6.14,15.83v22Zm-39.11-22.36a17,17,0,0,0,4.54,12.14,16.09,16.09,0,0,0,11.44,5.45,15.31,15.31,0,0,0,12.3-5A17.23,17.23,0,0,0,434,168a17,17,0,0,0-4.91-11.83,15.23,15.23,0,0,0-11.45-4.92,16.09,16.09,0,0,0-11.91,4.92A16.48,16.48,0,0,0,400.73,168.07Z"/><path class="cls-3" d="M468.39,190.43h-5.84V131.18h5.84Z"/><path class="cls-3" d="M535.18,190.43H529.5v-6.84q-7.15,8.17-17.52,7.84a21.66,21.66,0,0,1-15.45-7,23.1,23.1,0,0,1,.46-32.35,21,21,0,0,1,16.37-6.53A21.93,21.93,0,0,1,529,152.62a20.87,20.87,0,0,1,6.15,15.83v22Zm-39.11-22.36a17,17,0,0,0,4.53,12.14,16.11,16.11,0,0,0,11.45,5.45,15.32,15.32,0,0,0,12.3-5,17.23,17.23,0,0,0,5-12.68,17,17,0,0,0-4.92-11.83A15.21,15.21,0,0,0,513,151.24a16.13,16.13,0,0,0-11.92,4.92A16.51,16.51,0,0,0,496.07,168.07Z"/><path class="cls-3" d="M596.39,190.43h-5.92V164.84a13,13,0,0,0-4.07-9.53,12.73,12.73,0,0,0-9.37-4,13.66,13.66,0,0,0-13.53,13.53v25.59h-5.91v-25a19.36,19.36,0,0,1,5.53-14.14,19.77,19.77,0,0,1,27.74,0,19.36,19.36,0,0,1,5.53,14.14Z"/><path class="cls-3" d="M662.32,178.82c-4.61,8.53-11.76,12.68-21.37,12.61a23.47,23.47,0,0,1-16.44-6.69,22.46,22.46,0,0,1-.23-32.35A24,24,0,0,1,653.86,149a20.48,20.48,0,0,1,8.15,8.91l.85,1.92h-6.61c-3.31-5.61-8.3-8.53-15.06-8.68A16.78,16.78,0,0,0,629,156.08a16.26,16.26,0,0,0-5.61,12.37A17.45,17.45,0,0,0,641,185.74c6.84-.08,11.91-2.84,15.29-8.22h6.61Z"/><path class="cls-3" d="M721.47,190.43h-5.84V164.91a13,13,0,0,0-4.07-9.52,12.7,12.7,0,0,0-9.53-3.92,13.32,13.32,0,0,0-9.37,3.76,12.06,12.06,0,0,0-3.77,9.22v26h-6.07V131.18h5.92v21.67a16.4,16.4,0,0,1,12.83-6.92,18,18,0,0,1,14,5.38,19.21,19.21,0,0,1,5.91,14.22Z"/><path class="cls-3" d="M786.66,176.06a22.21,22.21,0,0,1-8.3,11.22,22.54,22.54,0,0,1-13,4.22A21.73,21.73,0,0,1,749.47,185a22.9,22.9,0,0,1-.15-33,21.43,21.43,0,0,1,17-6.61,22.55,22.55,0,0,1,15.21,7.22,20.94,20.94,0,0,1,6.23,14.75v3.15H748.4a16.17,16.17,0,0,0,5.6,10.92,16.8,16.8,0,0,0,11.61,4.22c6.91-.07,11.83-3.3,14.83-9.6ZM782,165.15a17.16,17.16,0,0,0-5.77-9.92,17,17,0,0,0-27.81,9.92Z"/></g></g></svg>